<?xml version="1.0" encoding="UTF-8" standalone="no"?>
<!-- Created with Inkscape (http://www.inkscape.org/) -->

<svg
   xmlns:dc="http://purl.org/dc/elements/1.1/"
   xmlns:cc="http://creativecommons.org/ns#"
   xmlns:rdf="http://www.w3.org/1999/02/22-rdf-syntax-ns#"
   xmlns:svg="http://www.w3.org/2000/svg"
   xmlns="http://www.w3.org/2000/svg"
   xmlns:xlink="http://www.w3.org/1999/xlink"
   xmlns:sodipodi="http://sodipodi.sourceforge.net/DTD/sodipodi-0.dtd"
   xmlns:inkscape="http://www.inkscape.org/namespaces/inkscape"
   version="1.2"
   width="491.21036"
   height="497.2435"
   viewBox="-0.327 -0.089 460.50969 466.16577"
   id="svg2834"
   xml:space="preserve"
   inkscape:version="0.92.2 5c3e80d, 2017-08-06"
   sodipodi:docname="isotipo.svg"
   inkscape:export-filename="/home/delphos/Pictures/ppcl-imagen/propaganda/insumos/isotipo.4.png"
   inkscape:export-xdpi="90"
   inkscape:export-ydpi="90"><metadata
     id="metadata42"><rdf:RDF><cc:Work
         rdf:about=""><dc:format>image/svg+xml</dc:format><dc:type
           rdf:resource="http://purl.org/dc/dcmitype/StillImage" /><dc:title /></cc:Work></rdf:RDF></metadata><sodipodi:namedview
     pagecolor="#000000"
     bordercolor="#666666"
     borderopacity="1"
     objecttolerance="10"
     gridtolerance="10"
     guidetolerance="10"
     inkscape:pageopacity="0"
     inkscape:pageshadow="2"
     inkscape:window-width="1354"
     inkscape:window-height="715"
     id="namedview40"
     showgrid="false"
     inkscape:zoom="0.71595647"
     inkscape:cx="-64.430639"
     inkscape:cy="250.17026"
     inkscape:window-x="0"
     inkscape:window-y="24"
     inkscape:window-maximized="1"
     inkscape:current-layer="svg2834" /><defs
     id="defs2836"><inkscape:perspective
       sodipodi:type="inkscape:persp3d"
       inkscape:vp_x="0 : 233.08288 : 1"
       inkscape:vp_y="0 : 999.99998 : 0"
       inkscape:vp_z="460.5097 : 233.08288 : 1"
       inkscape:persp3d-origin="230.25485 : 155.38859 : 1"
       id="perspective44" /><pattern
       patternTransform="translate(-1.1035156e-6,-1.5722656e-6)"
       id="pattern4541"
       xlink:href="#pattern4486" /><inkscape:path-effect
       effect="spiro"
       id="path-effect2869"
       is_visible="true" /><inkscape:path-effect
       effect="spiro"
       id="path-effect2861"
       is_visible="true" /><inkscape:path-effect
       effect="spiro"
       id="path-effect2857"
       is_visible="true" /><pattern
       id="pattern4486"
       patternTransform="translate(358.74063,211.68936)"
       height="202.44328"
       width="971.80567"
       patternUnits="userSpaceOnUse"><path
         style="fill:#ffffff;stroke:#000000;stroke-width:20;stroke-linecap:butt;stroke-linejoin:miter;stroke-miterlimit:4;stroke-opacity:1;stroke-dasharray:none"
         d="m 10,192.44328 951.80567,-1.38725 V 11.38725 L 93.88695,10 C 94.989341,44.003234 88.23578,78.237216 74.30247,109.27426 59.816463,141.54246 37.582138,170.30041 10,192.44328 Z"
         id="path2867"
         inkscape:path-effect="#path-effect2869"
         inkscape:original-d="m 10,192.44328 951.80567,-1.38725 0,-179.66878 L 93.88695,10 c 0,0 -10.01369,73.92597 -19.58448,99.27426 C 60.76731,145.12215 10,192.44328 10,192.44328 z"
         sodipodi:nodetypes="ccccsc" /><path
         style="fill:#ff0000;fill-opacity:1"
         d="m 45.32905,173.00057 c 31.32451,-34.1166 54.54485,-87.86211 57.78729,-133.75374 0.45822,-6.48538 1.11824,-13.19619 1.46671,-14.91291 l 0.63359,-3.1213 397.89125,0 c 218.84018,0 409.22808,0.41064 423.08408,0.91254 l 25.1929,0.91254 0,78.85419 0,78.8542 -264.6175,5.6e-4 c -145.53964,3e-4 -351.38439,0.41645 -457.43283,0.92478 l -192.81531,0.92421 8.80982,-9.59507 z m 183.29977,-30.20444 0,-21.303 17.68741,-0.788 c 28.43099,-1.26666 40.33819,-6.7622 48.04258,-22.17313 3.41041,-6.82178 3.99746,-9.63365 3.99746,-19.147 0,-14.67952 -4.71523,-24.7154 -14.79043,-31.47995 -12.02244,-8.07194 -18.47215,-9.15918 -54.93702,-9.2609 l -32.60032,-0.0909 -0.36095,62.77296 -0.36094,62.77295 16.6611,0 16.66111,0 0,-21.30299 z m 124.51961,-41.46996 -0.36095,-62.77296 -15.95334,0 -15.95335,0 -0.36095,62.77296 -0.36095,62.77295 16.67525,0 16.67524,0 -0.36095,-62.77295 z m 63.8328,38.84293 0.38036,-23.2364 7.39117,0 c 12.20778,0 15.16597,2.94019 26.89315,26.72951 l 10.07458,20.43691 17.32356,0 c 9.52795,0 17.32356,-0.27556 17.32356,-0.61234 0,-0.3368 -4.68569,-10.18727 -10.41265,-21.88995 -10.733,-21.93221 -16.283,-30.1594 -23.1712,-34.34836 l -3.97922,-2.41991 4.18058,-1.73166 c 2.29932,-0.95241 6.60462,-4.36142 9.56734,-7.57558 9.76743,-10.59641 11.10752,-28.71088 3.0625,-41.39657 C 467.60133,41.48856 452.6202,37.96853 406.54333,37.89538 l -22.54277,-0.0358 0,63.16379 0,63.16379 16.30015,-0.39083 16.30016,-0.39084 0.38036,-23.2364 z m 119.61898,12.13842 3.70027,-11.09799 24.71358,0 24.71357,0 1.86997,5.549 c 1.02848,3.05194 2.85964,8.2021 4.06927,11.44479 l 2.1993,5.8958 16.68065,0 c 15.32673,0 16.60283,-0.19704 15.72191,-2.42768 -0.52729,-1.33523 -10.27466,-27.5851 -21.66081,-58.33305 C 597.22176,72.59044 586.99839,45.26123 585.8893,42.60681 l -2.01652,-4.82623 -19.11478,0.38632 -19.11477,0.38631 -22.46151,60.34527 c -12.35381,33.1899 -22.50444,61.45754 -22.55694,62.81699 -0.0871,2.25636 1.31471,2.43764 16.08986,2.08087 l 16.18528,-0.39084 3.70029,-11.09798 0,0 z m 155.36936,-38.14931 0,-49.94092 20.8607,0 20.8608,0 -0.3989,-12.83204 -0.3988,-12.83204 -57.224,-0.3622 -57.22397,-0.3622 0,13.19424 0,13.19424 20.11509,0 20.11508,0 0,49.94092 0,49.94091 16.647,0 16.647,0 0,-49.94091 z m 65.6522,37.80249 4.0895,-11.44479 24.4948,0 24.4949,0 3.8401,11.79161 3.8401,11.7916 16.7093,0 c 12.7728,0 16.5635,-0.40853 16.0903,-1.73406 -10.2867,-28.81396 -44.9488,-121.53488 -45.9101,-122.80925 -0.9952,-1.31936 -6.12,-1.67366 -20.0658,-1.38725 l -18.7293,0.38465 -22.6555,61.0389 c -12.4605,33.57139 -22.6697,61.83903 -22.6869,62.81698 -0.024,1.36819 3.7066,1.68798 16.1838,1.38725 l 16.2153,-0.39084 4.0895,-11.4448 0,0 z"
         id="path2849" /></pattern><pattern
       id="pattern4492"
       patternTransform="translate(484.71313,52.559785)"
       height="126.53311"
       width="803.15756"
       patternUnits="userSpaceOnUse"><path
         style="fill:#000080;fill-opacity:1"
         d="M 0,62.962645 0,1.073011 33.64075,1.695585 c 30.95321,0.572837 34.29672,0.877419 41.85161,3.812529 16.89886,6.565279 25.12947,18.694379 25.02901,36.884166 -0.0991,17.950475 -9.52287,30.917135 -26.29263,36.177545 -4.07687,1.27885 -14.54165,2.48095 -25.32826,2.90948 l -18.38103,0.73024 0,21.321375 0,21.32137 -15.25973,0 -15.25972,0 0,-61.889645 z m 61.98165,-6.90479 c 2.15194,-1.59509 4.82975,-5.49672 5.95071,-8.6703 1.79263,-5.075178 1.79263,-6.465075 0,-11.540258 -3.27518,-9.272481 -7.40873,-11.381655 -23.57854,-12.03112 l -13.83437,-0.555662 0,18.325561 0,18.325559 13.7748,-0.4768 c 11.32014,-0.39185 14.47202,-0.99362 17.6874,-3.37698 z"
         id="path2834" /><path
         style="fill:#000080;fill-opacity:1"
         d="m 97.33928,116.92103 c 1.65081,-4.41215 11.90149,-32.056155 22.77928,-61.431125 l 19.77781,-53.409034 18.51542,-0.383874 18.51542,-0.383875 22.5162,60.799783 c 12.38392,33.43988 22.51621,61.236205 22.51621,61.769585 0,0.53339 -6.75883,0.96979 -15.01962,0.96979 l -15.01962,0 -3.87377,-11.12798 -3.87376,-11.12798 -25.67275,0.37681 -25.67275,0.37681 -3.81187,10.40436 -3.81187,10.40436 -15.43291,0.39222 -15.4329,0.39223 3.00148,-8.02208 z m 78.84117,-37.075415 c 0,-1.23902 -16.58748,-48.341838 -17.26098,-49.015342 -0.38259,-0.382589 -1.38974,1.107681 -2.23811,3.311711 -3.1164,8.096289 -15.1821,43.951741 -15.1821,45.116411 0,0.66108 7.80326,1.20197 17.34059,1.20197 9.53733,0 17.3406,-0.27664 17.3406,-0.61475 z"
         id="path2836" /><path
         style="fill:#000080;fill-opacity:1"
         d="m 239.99384,62.958505 0,-61.893784 32.2535,0.737727 c 35.82467,0.81941 42.86287,1.97093 51.38293,8.406764 8.17381,6.174285 11.29533,13.154078 11.25461,25.165602 -0.05,14.756441 -6.65277,25.022661 -19.14904,29.773731 l -4.01242,1.52552 6.09945,3.86965 c 7.48925,4.75138 10.83394,9.72291 23.34987,34.707115 l 9.81943,19.60146 -16.30942,-0.0143 -16.30942,-0.0143 -10.40436,-20.35353 C 295.54098,80.157895 293.66664,78.379545 280.47002,78.379545 l -9.26311,0 -0.38036,23.236395 -0.38035,23.2364 -15.22618,0 -15.22618,0 0,-61.893785 z m 56.87715,-8.51119 c 6.39176,-3.19305 9.23927,-11.213317 6.97139,-19.63559 -2.26785,-8.422122 -6.3234,-10.476732 -20.74274,-10.508604 l -11.89273,-0.02629 -0.39814,14.472317 c -0.21897,7.959774 -0.0825,15.294845 0.30328,16.300155 1.09552,2.8549 19.70984,2.41987 25.75894,-0.60199 z"
         id="path2838" /><path
         style="fill:#000080;fill-opacity:1"
         d="m 389.81658,74.911375 0,-49.940918 -20.11509,0 -20.11509,0 0,-11.791605 0,-11.791605 56.18353,0 56.18353,0 0,11.791605 0,11.791605 -20.80872,0 -20.80871,0 0,49.940918 0,49.940915 -15.25973,0 -15.25972,0 0,-49.940915 z"
         id="path2841" /><path
         style="fill:#000080;fill-opacity:1"
         d="m 479.98767,63.119765 0,-61.732518 15.25973,0 15.25972,0 0,61.732518 0,61.732525 -15.25972,0 -15.25973,0 0,-61.732525 z"
         id="path2843" /><path
         style="fill:#000080;fill-opacity:1"
         d="m 542.41377,62.900545 0,-61.951739 30.1727,0.901472 c 42.5983,1.272717 55.5385,4.714752 69.2418,18.418068 19.3694,19.369343 21.7726,58.140729 4.9707,80.191164 -14.2319,18.67746 -33.686,24.39278 -83.0298,24.39278 l -21.3554,0 0,-61.951745 z m 60.1874,36.4046 c 15.6184,-4.70046 23.6874,-17.05706 23.6293,-36.18538 -0.077,-25.472918 -13.9527,-38.149308 -41.7574,-38.149308 l -10.1526,0 0,38.149308 0,38.149315 10.8775,0 c 5.9827,0 13.8141,-0.88377 17.4032,-1.963935 z"
         id="path2845" /><path
         style="fill:#000080;fill-opacity:1"
         d="m 730.38587,126.04384 c -30.8301,-2.8272 -50.7212,-23.85323 -52.9909,-56.014345 C 674.37627,27.253106 698.77757,0 740.09657,0 c 32.4002,0 55.0227,16.811821 61.0785,45.390194 6.218,29.344161 -2.4616,56.844616 -22.2355,70.451286 -12.6593,8.71099 -28.506,12.04078 -48.5537,10.20236 l 0,0 z m 24.1064,-24.4801 c 10.5097,-5.371715 16.8174,-19.963235 16.8174,-38.903555 0,-25.901711 -11.2331,-40.464223 -31.2131,-40.464223 -21.6146,0 -32.5602,16.347439 -30.8666,46.099673 1.4121,24.80684 13.709,38.193925 33.4707,36.438045 3.7212,-0.33064 9.0274,-1.75711 11.7916,-3.16994 l 0,0 z"
         id="path2847" /></pattern><pattern
       id="pattern4529"
       patternTransform="translate(0.9586149,-4.4394611)"
       height="466.16578"
       width="460.50969"
       patternUnits="userSpaceOnUse"><path
         sodipodi:type="arc"
         style="fill:#000000;fill-opacity:1;stroke:#000000;stroke-width:0;stroke-linejoin:miter;stroke-miterlimit:4;stroke-opacity:1;stroke-dasharray:none;stroke-dashoffset:0;display:inline"
         id="path3682"
         sodipodi:cx="230.97673"
         sodipodi:cy="229.9424"
         sodipodi:rx="230.97673"
         sodipodi:ry="231.67035"
         d="m 461.95346,229.9424 a 230.97673,231.67035 0 1 1 -461.95346,0 230.97673,231.67035 0 1 1 461.95346,0 z"
         transform="matrix(0.99687463,0,0,1.0060972,0,1.7384867)" /><path
         sodipodi:type="arc"
         style="fill:#ffffff;stroke-width:19.01600075;stroke-linejoin:miter;stroke-miterlimit:4;stroke-dasharray:none;stroke-dashoffset:0;display:inline"
         id="path4511"
         sodipodi:cx="438.37024"
         sodipodi:cy="417.91446"
         sodipodi:rx="95.720085"
         sodipodi:ry="90.864723"
         d="m 534.09032,417.91446 a 95.720085,90.864723 0 1 1 -191.44017,0 95.720085,90.864723 0 1 1 191.44017,0 z"
         transform="matrix(2.1884058,0,0,2.3282444,-730.3345,-740.79492)" /><path
         d="m 119.84639,114.48246 c 24.267,-7.07 126.586,6.86 105.678,105.837 -7.609,36.019 -49.357,53.566 -69.592,68.72 -47.901,35.873 -6.648,121.071 -6.648,121.071 0,0 -22.318,-66.267 27.382,-97.619 45.727,-28.846 203.373,-15.293 202.831,-104.266 -1.039,-170.464999 -266.661,-108.969999 -259.651,-93.743 z"
         id="path2840" /><rect
         x="140.24638"
         y="65.729462"
         width="20.208"
         height="250.63"
         id="rect2842" /><path
         sodipodi:type="star"
         style="fill:#ffffff;fill-opacity:1;stroke:none"
         id="path3680"
         sodipodi:sides="5"
         sodipodi:cx="266.35153"
         sodipodi:cy="148.09479"
         sodipodi:r1="76.764175"
         sodipodi:r2="38.382088"
         sodipodi:arg1="0.79697492"
         sodipodi:arg2="1.4252935"
         inkscape:flatsided="false"
         inkscape:rounded="0"
         inkscape:randomized="0"
         d="m 319.99999,203 -48.08344,-16.9287 -41.20469,30.01284 1.24155,-50.96132 -41.27686,-29.91351 48.85076,-14.56713 15.69418,-48.50041 28.94988,41.95834 50.9764,-0.0614 -30.95875,40.49881 L 319.99999,203 z"
         transform="matrix(0.540316,0,0,0.543946,148.80739,111.61421)" /></pattern><pattern
       id="pattern4538"
       patternTransform="translate(358.74063,211.68936)"
       height="202.44328"
       width="971.80566"
       patternUnits="userSpaceOnUse"><rect
         style="fill:url(#pattern4541);stroke:none"
         width="971.80566"
         height="202.44328"
         x="0"
         y="0"
         id="rect4490" /><path
         style="fill:#ff0000;fill-opacity:1"
         d="m 228.62882,79.477018 0,-16.64698 11.14254,0 c 6.49171,0 13.11208,0.82293 15.86121,1.97159 11.94355,4.99034 11.94355,24.36044 0,29.35077 -2.74913,1.14866 -9.3695,1.97159 -15.86121,1.97159 l -11.14254,0 0,-16.64697 z"
         id="path2851" /><path
         style="fill:#ff0000;fill-opacity:1"
         d="m 417.2945,78.089768 0,-15.25973 8.8101,0 c 4.84555,0 10.795,0.69195 13.221,1.53765 10.55967,3.68112 11.46481,21.77487 1.35092,27.00497 -2.24801,1.16249 -7.85141,1.97683 -13.6024,1.97683 l -9.77962,0 0,-15.25972 z"
         id="path2853" /><path
         style="fill:#ff0000;fill-opacity:1"
         d="m 549.09873,116.58589 c 0.009,-0.19075 3.61426,-10.75572 8.0125,-23.477732 l 7.99679,-23.13091 7.48114,21.74367 c 4.11463,11.959012 7.7548,22.523992 8.08927,23.477722 0.46382,1.32258 -3.21272,1.73406 -15.49364,1.73406 -8.85597,0 -16.0947,-0.15606 -16.08606,-0.34681 z"
         id="path2855" /><path
         style="fill:#ff0000;fill-opacity:1"
         d="m 777.63057,94.063478 c 4.3341,-12.57807 8.2799,-22.41019 8.7685,-21.84915 0.8128,0.93325 15.163,42.666742 15.163,44.097122 0,0.34169 -7.1576,0.62125 -15.9058,0.62125 l -15.9059,0 7.8802,-22.869222 z"
         id="path2857" /></pattern></defs><g
     transform="translate(-1.285636,4.3504612)"
     id="layer1"
     style="display:inline"><g
       id="g2863" /><flowRoot
       transform="translate(-0.327,-0.089)"
       id="flowRoot3643"
       xml:space="preserve"
       style="font-style:normal;font-weight:normal;line-height:0.01%;font-family:'Bitstream Vera Sans';fill:#000000;fill-opacity:1;stroke:none"><flowRegion
         id="flowRegion3645"><rect
           width="873.966"
           height="105.43082"
           x="507.73264"
           y="257.68735"
           id="rect3647"
           style="font-size:18px" /></flowRegion><flowPara
         id="flowPara3649"
         style="font-size:18px;line-height:1.25"> </flowPara></flowRoot></g><g
     transform="translate(-1.285636,4.3504612)"
     id="g2838" /><rect
     style="fill:none;stroke:none"
     id="rect4536"
     y="-0.089000031"
     x="-0.32702112"
     height="466.16577"
     width="460.5097" /><ellipse
     transform="matrix(0.99687463,0,0,1.0060972,-0.3270211,1.6494868)"
     id="path2939"
     style="display:inline;fill:#0000ff;fill-opacity:1;stroke:#000000;stroke-width:0;stroke-linejoin:miter;stroke-miterlimit:4;stroke-dasharray:none;stroke-dashoffset:0;stroke-opacity:1"
     cx="230.97673"
     cy="229.9424"
     rx="230.97673"
     ry="231.67035" /><ellipse
     transform="matrix(2.1884058,0,0,2.3282444,-730.66152,-740.88392)"
     id="path2941"
     style="display:inline;fill:#000000;stroke-width:19.01600075;stroke-linejoin:miter;stroke-miterlimit:4;stroke-dasharray:none;stroke-dashoffset:0"
     cx="438.37024"
     cy="417.91446"
     rx="95.720085"
     ry="90.864723" /><path
     id="path2943"
     d="m 119.51937,114.39346 c 24.267,-7.07 126.586,6.86 105.678,105.837 -7.609,36.019 -49.357,53.566 -69.592,68.72 -47.901,35.873 -6.648,121.071 -6.648,121.071 0,0 -22.318,-66.267 27.382,-97.619 45.727,-28.846 203.373,-15.293 202.831,-104.266 -1.039,-170.464999 -266.661,-108.969999 -259.651,-93.743 z"
     inkscape:connector-curvature="0"
     style="fill:#0000ff" /><rect
     id="rect2945"
     height="250.63"
     width="20.208"
     y="65.640465"
     x="139.91936"
     style="fill:#0000ff" /><path
     transform="matrix(0.540316,0,0,0.543946,148.48037,111.52521)"
     d="m 319.99999,203 -48.08344,-16.9287 -41.20469,30.01284 1.24155,-50.96132 -41.27686,-29.91351 48.85076,-14.56713 15.69418,-48.50041 28.94988,41.95834 50.9764,-0.0614 -30.95875,40.49881 z"
     inkscape:randomized="0"
     inkscape:rounded="0"
     inkscape:flatsided="false"
     sodipodi:arg2="1.4252935"
     sodipodi:arg1="0.79697492"
     sodipodi:r2="38.382088"
     sodipodi:r1="76.764175"
     sodipodi:cy="148.09479"
     sodipodi:cx="266.35153"
     sodipodi:sides="5"
     id="path2947"
     style="fill:#ff0000;fill-opacity:1;stroke:none"
     sodipodi:type="star" /></svg>